<?xml version="1.0" encoding="UTF-8" standalone="no"?>
<!DOCTYPE svg PUBLIC "-//W3C//DTD SVG 1.1//EN"
 "http://www.w3.org/Graphics/SVG/1.1/DTD/svg11.dtd">
<!-- Generated by graphviz version 2.43.0 (0)
 -->
<!-- Title: Tree Pages: 1 -->
<svg width="1258pt" height="477pt"
 viewBox="0.00 0.00 1258.00 477.00" xmlns="http://www.w3.org/2000/svg" xmlns:xlink="http://www.w3.org/1999/xlink">
<g id="graph0" class="graph" transform="scale(1 1) rotate(0) translate(4 473)">
<title>Tree</title>
<polygon fill="white" stroke="transparent" points="-4,4 -4,-473 1254,-473 1254,4 -4,4"/>
<!-- 0 -->
<g id="node1" class="node">
<title>0</title>
<polygon fill="#afd7f4" stroke="black" points="784.5,-469 599.5,-469 599.5,-401 784.5,-401 784.5,-469"/>
<text text-anchor="middle" x="692" y="-453.8" font-family="Helvetica,sans-Serif" font-size="14.00">worst radius &lt;= 16.795</text>
<text text-anchor="middle" x="692" y="-438.8" font-family="Helvetica,sans-Serif" font-size="14.00">samples = 426</text>
<text text-anchor="middle" x="692" y="-423.8" font-family="Helvetica,sans-Serif" font-size="14.00">value = [159, 267]</text>
<text text-anchor="middle" x="692" y="-408.8" font-family="Helvetica,sans-Serif" font-size="14.00">class = benign</text>
</g>
<!-- 1 -->
<g id="node2" class="node">
<title>1</title>
<polygon fill="#4ca6e8" stroke="black" points="676.5,-365 439.5,-365 439.5,-297 676.5,-297 676.5,-365"/>
<text text-anchor="middle" x="558" y="-349.8" font-family="Helvetica,sans-Serif" font-size="14.00">worst concave points &lt;= 0.136</text>
<text text-anchor="middle" x="558" y="-334.8" font-family="Helvetica,sans-Serif" font-size="14.00">samples = 284</text>
<text text-anchor="middle" x="558" y="-319.8" font-family="Helvetica,sans-Serif" font-size="14.00">value = [25, 259]</text>
<text text-anchor="middle" x="558" y="-304.8" font-family="Helvetica,sans-Serif" font-size="14.00">class = benign</text>
</g>
<!-- 0&#45;&gt;1 -->
<g id="edge1" class="edge">
<title>0&#45;&gt;1</title>
<path fill="none" stroke="black" d="M648.49,-400.88C636.21,-391.53 622.71,-381.26 609.98,-371.57"/>
<polygon fill="black" stroke="black" points="611.82,-368.57 601.75,-365.3 607.58,-374.14 611.82,-368.57"/>
<text text-anchor="middle" x="605.11" y="-386.37" font-family="Helvetica,sans-Serif" font-size="14.00">True</text>
</g>
<!-- 14 -->
<g id="node15" class="node">
<title>14</title>
<polygon fill="#e78945" stroke="black" points="882.5,-365 705.5,-365 705.5,-297 882.5,-297 882.5,-365"/>
<text text-anchor="middle" x="794" y="-349.8" font-family="Helvetica,sans-Serif" font-size="14.00">texture error &lt;= 0.473</text>
<text text-anchor="middle" x="794" y="-334.8" font-family="Helvetica,sans-Serif" font-size="14.00">samples = 142</text>
<text text-anchor="middle" x="794" y="-319.8" font-family="Helvetica,sans-Serif" font-size="14.00">value = [134, 8]</text>
<text text-anchor="middle" x="794" y="-304.8" font-family="Helvetica,sans-Serif" font-size="14.00">class = malignant</text>
</g>
<!-- 0&#45;&gt;14 -->
<g id="edge14" class="edge">
<title>0&#45;&gt;14</title>
<path fill="none" stroke="black" d="M725.12,-400.88C734.2,-391.8 744.15,-381.85 753.6,-372.4"/>
<polygon fill="black" stroke="black" points="756.1,-374.85 760.7,-365.3 751.15,-369.9 756.1,-374.85"/>
<text text-anchor="middle" x="760.7" y="-386.6" font-family="Helvetica,sans-Serif" font-size="14.00">False</text>
</g>
<!-- 2 -->
<g id="node3" class="node">
<title>2</title>
<polygon fill="#3c9fe5" stroke="black" points="434.5,-261 263.5,-261 263.5,-193 434.5,-193 434.5,-261"/>
<text text-anchor="middle" x="349" y="-245.8" font-family="Helvetica,sans-Serif" font-size="14.00">radius error &lt;= 1.048</text>
<text text-anchor="middle" x="349" y="-230.8" font-family="Helvetica,sans-Serif" font-size="14.00">samples = 252</text>
<text text-anchor="middle" x="349" y="-215.8" font-family="Helvetica,sans-Serif" font-size="14.00">value = [4, 248]</text>
<text text-anchor="middle" x="349" y="-200.8" font-family="Helvetica,sans-Serif" font-size="14.00">class = benign</text>
</g>
<!-- 1&#45;&gt;2 -->
<g id="edge2" class="edge">
<title>1&#45;&gt;2</title>
<path fill="none" stroke="black" d="M490.14,-296.88C469.69,-286.9 447.09,-275.87 426.08,-265.62"/>
<polygon fill="black" stroke="black" points="427.4,-262.37 416.87,-261.12 424.33,-268.66 427.4,-262.37"/>
</g>
<!-- 7 -->
<g id="node8" class="node">
<title>7</title>
<polygon fill="#f3c3a1" stroke="black" points="649,-261 467,-261 467,-193 649,-193 649,-261"/>
<text text-anchor="middle" x="558" y="-245.8" font-family="Helvetica,sans-Serif" font-size="14.00">worst texture &lt;= 25.62</text>
<text text-anchor="middle" x="558" y="-230.8" font-family="Helvetica,sans-Serif" font-size="14.00">samples = 32</text>
<text text-anchor="middle" x="558" y="-215.8" font-family="Helvetica,sans-Serif" font-size="14.00">value = [21, 11]</text>
<text text-anchor="middle" x="558" y="-200.8" font-family="Helvetica,sans-Serif" font-size="14.00">class = malignant</text>
</g>
<!-- 1&#45;&gt;7 -->
<g id="edge7" class="edge">
<title>1&#45;&gt;7</title>
<path fill="none" stroke="black" d="M558,-296.88C558,-288.78 558,-279.98 558,-271.47"/>
<polygon fill="black" stroke="black" points="561.5,-271.3 558,-261.3 554.5,-271.3 561.5,-271.3"/>
</g>
<!-- 3 -->
<g id="node4" class="node">
<title>3</title>
<polygon fill="#3b9ee5" stroke="black" points="260,-157 48,-157 48,-89 260,-89 260,-157"/>
<text text-anchor="middle" x="154" y="-141.8" font-family="Helvetica,sans-Serif" font-size="14.00">smoothness error &lt;= 0.003</text>
<text text-anchor="middle" x="154" y="-126.8" font-family="Helvetica,sans-Serif" font-size="14.00">samples = 251</text>
<text text-anchor="middle" x="154" y="-111.8" font-family="Helvetica,sans-Serif" font-size="14.00">value = [3, 248]</text>
<text text-anchor="middle" x="154" y="-96.8" font-family="Helvetica,sans-Serif" font-size="14.00">class = benign</text>
</g>
<!-- 2&#45;&gt;3 -->
<g id="edge3" class="edge">
<title>2&#45;&gt;3</title>
<path fill="none" stroke="black" d="M285.69,-192.88C266.78,-182.99 245.9,-172.07 226.45,-161.9"/>
<polygon fill="black" stroke="black" points="227.81,-158.66 217.33,-157.12 224.57,-164.86 227.81,-158.66"/>
</g>
<!-- 6 -->
<g id="node7" class="node">
<title>6</title>
<polygon fill="#e58139" stroke="black" points="420,-149.5 278,-149.5 278,-96.5 420,-96.5 420,-149.5"/>
<text text-anchor="middle" x="349" y="-134.3" font-family="Helvetica,sans-Serif" font-size="14.00">samples = 1</text>
<text text-anchor="middle" x="349" y="-119.3" font-family="Helvetica,sans-Serif" font-size="14.00">value = [1, 0]</text>
<text text-anchor="middle" x="349" y="-104.3" font-family="Helvetica,sans-Serif" font-size="14.00">class = malignant</text>
</g>
<!-- 2&#45;&gt;6 -->
<g id="edge6" class="edge">
<title>2&#45;&gt;6</title>
<path fill="none" stroke="black" d="M349,-192.88C349,-182.33 349,-170.6 349,-159.85"/>
<polygon fill="black" stroke="black" points="352.5,-159.52 349,-149.52 345.5,-159.52 352.5,-159.52"/>
</g>
<!-- 4 -->
<g id="node5" class="node">
<title>4</title>
<polygon fill="#7bbeee" stroke="black" points="120,-53 0,-53 0,0 120,0 120,-53"/>
<text text-anchor="middle" x="60" y="-37.8" font-family="Helvetica,sans-Serif" font-size="14.00">samples = 4</text>
<text text-anchor="middle" x="60" y="-22.8" font-family="Helvetica,sans-Serif" font-size="14.00">value = [1, 3]</text>
<text text-anchor="middle" x="60" y="-7.8" font-family="Helvetica,sans-Serif" font-size="14.00">class = benign</text>
</g>
<!-- 3&#45;&gt;4 -->
<g id="edge4" class="edge">
<title>3&#45;&gt;4</title>
<path fill="none" stroke="black" d="M121.12,-88.95C111.93,-79.71 101.95,-69.67 92.76,-60.44"/>
<polygon fill="black" stroke="black" points="95.13,-57.86 85.6,-53.24 90.17,-62.79 95.13,-57.86"/>
</g>
<!-- 5 -->
<g id="node6" class="node">
<title>5</title>
<polygon fill="#3b9ee5" stroke="black" points="269.5,-53 138.5,-53 138.5,0 269.5,0 269.5,-53"/>
<text text-anchor="middle" x="204" y="-37.8" font-family="Helvetica,sans-Serif" font-size="14.00">samples = 247</text>
<text text-anchor="middle" x="204" y="-22.8" font-family="Helvetica,sans-Serif" font-size="14.00">value = [2, 245]</text>
<text text-anchor="middle" x="204" y="-7.8" font-family="Helvetica,sans-Serif" font-size="14.00">class = benign</text>
</g>
<!-- 3&#45;&gt;5 -->
<g id="edge5" class="edge">
<title>3&#45;&gt;5</title>
<path fill="none" stroke="black" d="M171.49,-88.95C176.09,-80.26 181.06,-70.86 185.7,-62.09"/>
<polygon fill="black" stroke="black" points="188.8,-63.71 190.38,-53.24 182.61,-60.44 188.8,-63.71"/>
</g>
<!-- 8 -->
<g id="node9" class="node">
<title>8</title>
<polygon fill="#7bbeee" stroke="black" points="655.5,-157 438.5,-157 438.5,-89 655.5,-89 655.5,-157"/>
<text text-anchor="middle" x="547" y="-141.8" font-family="Helvetica,sans-Serif" font-size="14.00">worst smoothness &lt;= 0.179</text>
<text text-anchor="middle" x="547" y="-126.8" font-family="Helvetica,sans-Serif" font-size="14.00">samples = 12</text>
<text text-anchor="middle" x="547" y="-111.8" font-family="Helvetica,sans-Serif" font-size="14.00">value = [3, 9]</text>
<text text-anchor="middle" x="547" y="-96.8" font-family="Helvetica,sans-Serif" font-size="14.00">class = benign</text>
</g>
<!-- 7&#45;&gt;8 -->
<g id="edge8" class="edge">
<title>7&#45;&gt;8</title>
<path fill="none" stroke="black" d="M554.43,-192.88C553.55,-184.78 552.61,-175.98 551.69,-167.47"/>
<polygon fill="black" stroke="black" points="555.14,-166.87 550.59,-157.3 548.18,-167.62 555.14,-166.87"/>
</g>
<!-- 11 -->
<g id="node12" class="node">
<title>11</title>
<polygon fill="#e88f4f" stroke="black" points="876.5,-157 673.5,-157 673.5,-89 876.5,-89 876.5,-157"/>
<text text-anchor="middle" x="775" y="-141.8" font-family="Helvetica,sans-Serif" font-size="14.00">worst symmetry &lt;= 0.268</text>
<text text-anchor="middle" x="775" y="-126.8" font-family="Helvetica,sans-Serif" font-size="14.00">samples = 20</text>
<text text-anchor="middle" x="775" y="-111.8" font-family="Helvetica,sans-Serif" font-size="14.00">value = [18, 2]</text>
<text text-anchor="middle" x="775" y="-96.8" font-family="Helvetica,sans-Serif" font-size="14.00">class = malignant</text>
</g>
<!-- 7&#45;&gt;11 -->
<g id="edge11" class="edge">
<title>7&#45;&gt;11</title>
<path fill="none" stroke="black" d="M628.45,-192.88C649.79,-182.86 673.36,-171.77 695.26,-161.48"/>
<polygon fill="black" stroke="black" points="696.97,-164.55 704.53,-157.12 693.99,-158.21 696.97,-164.55"/>
</g>
<!-- 9 -->
<g id="node10" class="node">
<title>9</title>
<polygon fill="#4fa8e8" stroke="black" points="458,-53 338,-53 338,0 458,0 458,-53"/>
<text text-anchor="middle" x="398" y="-37.8" font-family="Helvetica,sans-Serif" font-size="14.00">samples = 10</text>
<text text-anchor="middle" x="398" y="-22.8" font-family="Helvetica,sans-Serif" font-size="14.00">value = [1, 9]</text>
<text text-anchor="middle" x="398" y="-7.8" font-family="Helvetica,sans-Serif" font-size="14.00">class = benign</text>
</g>
<!-- 8&#45;&gt;9 -->
<g id="edge9" class="edge">
<title>8&#45;&gt;9</title>
<path fill="none" stroke="black" d="M494.89,-88.95C479.45,-79.16 462.61,-68.48 447.35,-58.8"/>
<polygon fill="black" stroke="black" points="448.9,-55.64 438.58,-53.24 445.15,-61.55 448.9,-55.64"/>
</g>
<!-- 10 -->
<g id="node11" class="node">
<title>10</title>
<polygon fill="#e58139" stroke="black" points="618,-53 476,-53 476,0 618,0 618,-53"/>
<text text-anchor="middle" x="547" y="-37.8" font-family="Helvetica,sans-Serif" font-size="14.00">samples = 2</text>
<text text-anchor="middle" x="547" y="-22.8" font-family="Helvetica,sans-Serif" font-size="14.00">value = [2, 0]</text>
<text text-anchor="middle" x="547" y="-7.8" font-family="Helvetica,sans-Serif" font-size="14.00">class = malignant</text>
</g>
<!-- 8&#45;&gt;10 -->
<g id="edge10" class="edge">
<title>8&#45;&gt;10</title>
<path fill="none" stroke="black" d="M547,-88.95C547,-80.72 547,-71.85 547,-63.48"/>
<polygon fill="black" stroke="black" points="550.5,-63.24 547,-53.24 543.5,-63.24 550.5,-63.24"/>
</g>
<!-- 12 -->
<g id="node13" class="node">
<title>12</title>
<polygon fill="#9ccef2" stroke="black" points="756,-53 636,-53 636,0 756,0 756,-53"/>
<text text-anchor="middle" x="696" y="-37.8" font-family="Helvetica,sans-Serif" font-size="14.00">samples = 3</text>
<text text-anchor="middle" x="696" y="-22.8" font-family="Helvetica,sans-Serif" font-size="14.00">value = [1, 2]</text>
<text text-anchor="middle" x="696" y="-7.8" font-family="Helvetica,sans-Serif" font-size="14.00">class = benign</text>
</g>
<!-- 11&#45;&gt;12 -->
<g id="edge12" class="edge">
<title>11&#45;&gt;12</title>
<path fill="none" stroke="black" d="M747.37,-88.95C739.8,-79.89 731.59,-70.07 723.99,-60.99"/>
<polygon fill="black" stroke="black" points="726.61,-58.66 717.52,-53.24 721.24,-63.15 726.61,-58.66"/>
</g>
<!-- 13 -->
<g id="node14" class="node">
<title>13</title>
<polygon fill="#e58139" stroke="black" points="916,-53 774,-53 774,0 916,0 916,-53"/>
<text text-anchor="middle" x="845" y="-37.8" font-family="Helvetica,sans-Serif" font-size="14.00">samples = 17</text>
<text text-anchor="middle" x="845" y="-22.8" font-family="Helvetica,sans-Serif" font-size="14.00">value = [17, 0]</text>
<text text-anchor="middle" x="845" y="-7.8" font-family="Helvetica,sans-Serif" font-size="14.00">class = malignant</text>
</g>
<!-- 11&#45;&gt;13 -->
<g id="edge13" class="edge">
<title>11&#45;&gt;13</title>
<path fill="none" stroke="black" d="M799.48,-88.95C806.06,-80.07 813.17,-70.46 819.79,-61.54"/>
<polygon fill="black" stroke="black" points="822.8,-63.36 825.94,-53.24 817.17,-59.19 822.8,-63.36"/>
</g>
<!-- 15 -->
<g id="node16" class="node">
<title>15</title>
<polygon fill="#399de5" stroke="black" points="854,-253.5 734,-253.5 734,-200.5 854,-200.5 854,-253.5"/>
<text text-anchor="middle" x="794" y="-238.3" font-family="Helvetica,sans-Serif" font-size="14.00">samples = 5</text>
<text text-anchor="middle" x="794" y="-223.3" font-family="Helvetica,sans-Serif" font-size="14.00">value = [0, 5]</text>
<text text-anchor="middle" x="794" y="-208.3" font-family="Helvetica,sans-Serif" font-size="14.00">class = benign</text>
</g>
<!-- 14&#45;&gt;15 -->
<g id="edge15" class="edge">
<title>14&#45;&gt;15</title>
<path fill="none" stroke="black" d="M794,-296.88C794,-286.33 794,-274.6 794,-263.85"/>
<polygon fill="black" stroke="black" points="797.5,-263.52 794,-253.52 790.5,-263.52 797.5,-263.52"/>
</g>
<!-- 16 -->
<g id="node17" class="node">
<title>16</title>
<polygon fill="#e6843d" stroke="black" points="1093.5,-261 894.5,-261 894.5,-193 1093.5,-193 1093.5,-261"/>
<text text-anchor="middle" x="994" y="-245.8" font-family="Helvetica,sans-Serif" font-size="14.00">worst concavity &lt;= 0.191</text>
<text text-anchor="middle" x="994" y="-230.8" font-family="Helvetica,sans-Serif" font-size="14.00">samples = 137</text>
<text text-anchor="middle" x="994" y="-215.8" font-family="Helvetica,sans-Serif" font-size="14.00">value = [134, 3]</text>
<text text-anchor="middle" x="994" y="-200.8" font-family="Helvetica,sans-Serif" font-size="14.00">class = malignant</text>
</g>
<!-- 14&#45;&gt;16 -->
<g id="edge16" class="edge">
<title>14&#45;&gt;16</title>
<path fill="none" stroke="black" d="M858.93,-296.88C878.42,-286.95 899.94,-275.97 919.97,-265.76"/>
<polygon fill="black" stroke="black" points="921.73,-268.79 929.05,-261.12 918.55,-262.55 921.73,-268.79"/>
</g>
<!-- 17 -->
<g id="node18" class="node">
<title>17</title>
<polygon fill="#bddef6" stroke="black" points="1089.5,-157 898.5,-157 898.5,-89 1089.5,-89 1089.5,-157"/>
<text text-anchor="middle" x="994" y="-141.8" font-family="Helvetica,sans-Serif" font-size="14.00">worst texture &lt;= 30.975</text>
<text text-anchor="middle" x="994" y="-126.8" font-family="Helvetica,sans-Serif" font-size="14.00">samples = 5</text>
<text text-anchor="middle" x="994" y="-111.8" font-family="Helvetica,sans-Serif" font-size="14.00">value = [2, 3]</text>
<text text-anchor="middle" x="994" y="-96.8" font-family="Helvetica,sans-Serif" font-size="14.00">class = benign</text>
</g>
<!-- 16&#45;&gt;17 -->
<g id="edge17" class="edge">
<title>16&#45;&gt;17</title>
<path fill="none" stroke="black" d="M994,-192.88C994,-184.78 994,-175.98 994,-167.47"/>
<polygon fill="black" stroke="black" points="997.5,-167.3 994,-157.3 990.5,-167.3 997.5,-167.3"/>
</g>
<!-- 20 -->
<g id="node21" class="node">
<title>20</title>
<polygon fill="#e58139" stroke="black" points="1250,-149.5 1108,-149.5 1108,-96.5 1250,-96.5 1250,-149.5"/>
<text text-anchor="middle" x="1179" y="-134.3" font-family="Helvetica,sans-Serif" font-size="14.00">samples = 132</text>
<text text-anchor="middle" x="1179" y="-119.3" font-family="Helvetica,sans-Serif" font-size="14.00">value = [132, 0]</text>
<text text-anchor="middle" x="1179" y="-104.3" font-family="Helvetica,sans-Serif" font-size="14.00">class = malignant</text>
</g>
<!-- 16&#45;&gt;20 -->
<g id="edge20" class="edge">
<title>16&#45;&gt;20</title>
<path fill="none" stroke="black" d="M1054.06,-192.88C1076.5,-180.51 1101.86,-166.53 1123.84,-154.41"/>
<polygon fill="black" stroke="black" points="1125.65,-157.41 1132.71,-149.52 1122.27,-151.28 1125.65,-157.41"/>
</g>
<!-- 18 -->
<g id="node19" class="node">
<title>18</title>
<polygon fill="#399de5" stroke="black" points="1054,-53 934,-53 934,0 1054,0 1054,-53"/>
<text text-anchor="middle" x="994" y="-37.8" font-family="Helvetica,sans-Serif" font-size="14.00">samples = 3</text>
<text text-anchor="middle" x="994" y="-22.8" font-family="Helvetica,sans-Serif" font-size="14.00">value = [0, 3]</text>
<text text-anchor="middle" x="994" y="-7.8" font-family="Helvetica,sans-Serif" font-size="14.00">class = benign</text>
</g>
<!-- 17&#45;&gt;18 -->
<g id="edge18" class="edge">
<title>17&#45;&gt;18</title>
<path fill="none" stroke="black" d="M994,-88.95C994,-80.72 994,-71.85 994,-63.48"/>
<polygon fill="black" stroke="black" points="997.5,-63.24 994,-53.24 990.5,-63.24 997.5,-63.24"/>
</g>
<!-- 19 -->
<g id="node20" class="node">
<title>19</title>
<polygon fill="#e58139" stroke="black" points="1214,-53 1072,-53 1072,0 1214,0 1214,-53"/>
<text text-anchor="middle" x="1143" y="-37.8" font-family="Helvetica,sans-Serif" font-size="14.00">samples = 2</text>
<text text-anchor="middle" x="1143" y="-22.8" font-family="Helvetica,sans-Serif" font-size="14.00">value = [2, 0]</text>
<text text-anchor="middle" x="1143" y="-7.8" font-family="Helvetica,sans-Serif" font-size="14.00">class = malignant</text>
</g>
<!-- 17&#45;&gt;19 -->
<g id="edge19" class="edge">
<title>17&#45;&gt;19</title>
<path fill="none" stroke="black" d="M1046.11,-88.95C1061.55,-79.16 1078.39,-68.48 1093.65,-58.8"/>
<polygon fill="black" stroke="black" points="1095.85,-61.55 1102.42,-53.24 1092.1,-55.64 1095.85,-61.55"/>
</g>
</g>
</svg>