<?xml version="1.0" encoding="UTF-8" standalone="no"?>
<!DOCTYPE svg PUBLIC "-//W3C//DTD SVG 1.1//EN"
 "http://www.w3.org/Graphics/SVG/1.1/DTD/svg11.dtd">
<!-- Generated by graphviz version 10.0.1 (20240210.2158)
 -->
<!-- Title: Tree Pages: 1 -->
<svg width="301pt" height="236pt"
 viewBox="0.00 0.00 300.50 236.00" xmlns="http://www.w3.org/2000/svg" xmlns:xlink="http://www.w3.org/1999/xlink">
<g id="graph0" class="graph" transform="scale(1 1) rotate(0) translate(4 232)">
<title>Tree</title>
<polygon fill="white" stroke="none" points="-4,4 -4,-232 296.5,-232 296.5,4 -4,4"/>
<!-- 0 -->
<g id="node1" class="node">
<title>0</title>
<polygon fill="#ffffff" stroke="black" points="171.62,-228 58.88,-228 58.88,-170.5 171.62,-170.5 171.62,-228"/>
<text text-anchor="middle" x="115.25" y="-210.7" font-family="Helvetica,sans-Serif" font-size="14.00">x[1] &lt;= &#45;5.814</text>
<text text-anchor="middle" x="115.25" y="-194.2" font-family="Helvetica,sans-Serif" font-size="14.00">samples = 100</text>
<text text-anchor="middle" x="115.25" y="-177.7" font-family="Helvetica,sans-Serif" font-size="14.00">value = [50, 50]</text>
</g>
<!-- 1 -->
<g id="node2" class="node">
<title>1</title>
<polygon fill="#e58139" stroke="black" points="104.5,-126.25 0,-126.25 0,-85.25 104.5,-85.25 104.5,-126.25"/>
<text text-anchor="middle" x="52.25" y="-108.95" font-family="Helvetica,sans-Serif" font-size="14.00">samples = 25</text>
<text text-anchor="middle" x="52.25" y="-92.45" font-family="Helvetica,sans-Serif" font-size="14.00">value = [25, 0]</text>
</g>
<!-- 0&#45;&gt;1 -->
<g id="edge1" class="edge">
<title>0&#45;&gt;1</title>
<path fill="none" stroke="black" d="M96.01,-170.3C88.5,-159.41 79.91,-146.92 72.33,-135.91"/>
<polygon fill="black" stroke="black" points="75.4,-134.19 66.84,-127.94 69.63,-138.16 75.4,-134.19"/>
<text text-anchor="middle" x="61.45" y="-146.23" font-family="Helvetica,sans-Serif" font-size="14.00">True</text>
</g>
<!-- 2 -->
<g id="node3" class="node">
<title>2</title>
<polygon fill="#9ccef2" stroke="black" points="235.62,-134.5 122.88,-134.5 122.88,-77 235.62,-77 235.62,-134.5"/>
<text text-anchor="middle" x="179.25" y="-117.2" font-family="Helvetica,sans-Serif" font-size="14.00">x[1] &lt;= 5.348</text>
<text text-anchor="middle" x="179.25" y="-100.7" font-family="Helvetica,sans-Serif" font-size="14.00">samples = 75</text>
<text text-anchor="middle" x="179.25" y="-84.2" font-family="Helvetica,sans-Serif" font-size="14.00">value = [25, 50]</text>
</g>
<!-- 0&#45;&gt;2 -->
<g id="edge2" class="edge">
<title>0&#45;&gt;2</title>
<path fill="none" stroke="black" d="M134.8,-170.3C140.58,-162.04 147,-152.86 153.12,-144.11"/>
<polygon fill="black" stroke="black" points="155.87,-146.29 158.73,-136.08 150.13,-142.27 155.87,-146.29"/>
<text text-anchor="middle" x="163.95" y="-154.41" font-family="Helvetica,sans-Serif" font-size="14.00">False</text>
</g>
<!-- 3 -->
<g id="node4" class="node">
<title>3</title>
<polygon fill="#399de5" stroke="black" points="169.5,-41 65,-41 65,0 169.5,0 169.5,-41"/>
<text text-anchor="middle" x="117.25" y="-23.7" font-family="Helvetica,sans-Serif" font-size="14.00">samples = 50</text>
<text text-anchor="middle" x="117.25" y="-7.2" font-family="Helvetica,sans-Serif" font-size="14.00">value = [0, 50]</text>
</g>
<!-- 2&#45;&gt;3 -->
<g id="edge3" class="edge">
<title>2&#45;&gt;3</title>
<path fill="none" stroke="black" d="M158.26,-76.57C151.98,-68.13 145.09,-58.88 138.78,-50.4"/>
<polygon fill="black" stroke="black" points="141.64,-48.39 132.86,-42.46 136.03,-52.57 141.64,-48.39"/>
</g>
<!-- 4 -->
<g id="node5" class="node">
<title>4</title>
<polygon fill="#e58139" stroke="black" points="292.5,-41 188,-41 188,0 292.5,0 292.5,-41"/>
<text text-anchor="middle" x="240.25" y="-23.7" font-family="Helvetica,sans-Serif" font-size="14.00">samples = 25</text>
<text text-anchor="middle" x="240.25" y="-7.2" font-family="Helvetica,sans-Serif" font-size="14.00">value = [25, 0]</text>
</g>
<!-- 2&#45;&gt;4 -->
<g id="edge4" class="edge">
<title>2&#45;&gt;4</title>
<path fill="none" stroke="black" d="M199.9,-76.57C206.08,-68.13 212.86,-58.88 219.07,-50.4"/>
<polygon fill="black" stroke="black" points="221.8,-52.6 224.88,-42.47 216.15,-48.47 221.8,-52.6"/>
</g>
</g>
</svg>