<?xml version="1.0" encoding="UTF-8" standalone="no"?>
<!DOCTYPE svg PUBLIC "-//W3C//DTD SVG 1.1//EN"
 "http://www.w3.org/Graphics/SVG/1.1/DTD/svg11.dtd">
<!-- Generated by graphviz version 2.43.0 (0)
 -->
<!-- Title: Tree Pages: 1 -->
<svg width="345pt" height="224pt"
 viewBox="0.00 0.00 345.00 224.00" xmlns="http://www.w3.org/2000/svg" xmlns:xlink="http://www.w3.org/1999/xlink">
<g id="graph0" class="graph" transform="scale(1 1) rotate(0) translate(4 220)">
<title>Tree</title>
<polygon fill="white" stroke="transparent" points="-4,4 -4,-220 341,-220 341,4 -4,4"/>
<!-- 0 -->
<g id="node1" class="node">
<title>0</title>
<polygon fill="#ffffff" stroke="black" points="198.5,-216 67.5,-216 67.5,-163 198.5,-163 198.5,-216"/>
<text text-anchor="middle" x="133" y="-200.8" font-family="Helvetica,sans-Serif" font-size="14.00">x[1] &lt;= &#45;5.814</text>
<text text-anchor="middle" x="133" y="-185.8" font-family="Helvetica,sans-Serif" font-size="14.00">samples = 100</text>
<text text-anchor="middle" x="133" y="-170.8" font-family="Helvetica,sans-Serif" font-size="14.00">value = [50, 50]</text>
</g>
<!-- 1 -->
<g id="node2" class="node">
<title>1</title>
<polygon fill="#e58139" stroke="black" points="122,-119.5 0,-119.5 0,-81.5 122,-81.5 122,-119.5"/>
<text text-anchor="middle" x="61" y="-104.3" font-family="Helvetica,sans-Serif" font-size="14.00">samples = 25</text>
<text text-anchor="middle" x="61" y="-89.3" font-family="Helvetica,sans-Serif" font-size="14.00">value = [25, 0]</text>
</g>
<!-- 0&#45;&gt;1 -->
<g id="edge1" class="edge">
<title>0&#45;&gt;1</title>
<path fill="none" stroke="black" d="M111.79,-162.87C102.51,-151.66 91.64,-138.53 82.35,-127.29"/>
<polygon fill="black" stroke="black" points="84.97,-124.98 75.9,-119.51 79.58,-129.44 84.97,-124.98"/>
<text text-anchor="middle" x="73.55" y="-140.7" font-family="Helvetica,sans-Serif" font-size="14.00">True</text>
</g>
<!-- 2 -->
<g id="node3" class="node">
<title>2</title>
<polygon fill="#9ccef2" stroke="black" points="271.5,-127 140.5,-127 140.5,-74 271.5,-74 271.5,-127"/>
<text text-anchor="middle" x="206" y="-111.8" font-family="Helvetica,sans-Serif" font-size="14.00">x[1] &lt;= 5.348</text>
<text text-anchor="middle" x="206" y="-96.8" font-family="Helvetica,sans-Serif" font-size="14.00">samples = 75</text>
<text text-anchor="middle" x="206" y="-81.8" font-family="Helvetica,sans-Serif" font-size="14.00">value = [25, 50]</text>
</g>
<!-- 0&#45;&gt;2 -->
<g id="edge2" class="edge">
<title>0&#45;&gt;2</title>
<path fill="none" stroke="black" d="M154.51,-162.87C161.79,-154.18 170.05,-144.35 177.77,-135.14"/>
<polygon fill="black" stroke="black" points="180.65,-137.16 184.39,-127.25 175.28,-132.66 180.65,-137.16"/>
<text text-anchor="middle" x="186.57" y="-148.45" font-family="Helvetica,sans-Serif" font-size="14.00">False</text>
</g>
<!-- 3 -->
<g id="node4" class="node">
<title>3</title>
<polygon fill="#399de5" stroke="black" points="197,-38 75,-38 75,0 197,0 197,-38"/>
<text text-anchor="middle" x="136" y="-22.8" font-family="Helvetica,sans-Serif" font-size="14.00">samples = 50</text>
<text text-anchor="middle" x="136" y="-7.8" font-family="Helvetica,sans-Serif" font-size="14.00">value = [0, 50]</text>
</g>
<!-- 2&#45;&gt;3 -->
<g id="edge3" class="edge">
<title>2&#45;&gt;3</title>
<path fill="none" stroke="black" d="M183.47,-73.91C175.55,-64.92 166.66,-54.82 158.73,-45.82"/>
<polygon fill="black" stroke="black" points="161.29,-43.43 152.06,-38.24 156.04,-48.06 161.29,-43.43"/>
</g>
<!-- 4 -->
<g id="node5" class="node">
<title>4</title>
<polygon fill="#e58139" stroke="black" points="337,-38 215,-38 215,0 337,0 337,-38"/>
<text text-anchor="middle" x="276" y="-22.8" font-family="Helvetica,sans-Serif" font-size="14.00">samples = 25</text>
<text text-anchor="middle" x="276" y="-7.8" font-family="Helvetica,sans-Serif" font-size="14.00">value = [25, 0]</text>
</g>
<!-- 2&#45;&gt;4 -->
<g id="edge4" class="edge">
<title>2&#45;&gt;4</title>
<path fill="none" stroke="black" d="M228.53,-73.91C236.45,-64.92 245.34,-54.82 253.27,-45.82"/>
<polygon fill="black" stroke="black" points="255.96,-48.06 259.94,-38.24 250.71,-43.43 255.96,-48.06"/>
</g>
</g>
</svg>