<?xml version="1.0" encoding="UTF-8" standalone="no"?>
<!DOCTYPE svg PUBLIC "-//W3C//DTD SVG 1.1//EN"
 "http://www.w3.org/Graphics/SVG/1.1/DTD/svg11.dtd">
<!-- Generated by graphviz version 10.0.1 (20240210.2158)
 -->
<!-- Title: Tree Pages: 1 -->
<svg width="1124pt" height="506pt"
 viewBox="0.00 0.00 1124.12 505.50" xmlns="http://www.w3.org/2000/svg" xmlns:xlink="http://www.w3.org/1999/xlink">
<g id="graph0" class="graph" transform="scale(1 1) rotate(0) translate(4 501.5)">
<title>Tree</title>
<polygon fill="white" stroke="none" points="-4,4 -4,-501.5 1120.12,-501.5 1120.12,4 -4,4"/>
<!-- 0 -->
<g id="node1" class="node">
<title>0</title>
<polygon fill="#afd7f4" stroke="black" points="702.12,-497.5 541.38,-497.5 541.38,-423.5 702.12,-423.5 702.12,-497.5"/>
<text text-anchor="middle" x="621.75" y="-480.2" font-family="Helvetica,sans-Serif" font-size="14.00">worst radius &lt;= 16.795</text>
<text text-anchor="middle" x="621.75" y="-463.7" font-family="Helvetica,sans-Serif" font-size="14.00">samples = 426</text>
<text text-anchor="middle" x="621.75" y="-447.2" font-family="Helvetica,sans-Serif" font-size="14.00">value = [159, 267]</text>
<text text-anchor="middle" x="621.75" y="-430.7" font-family="Helvetica,sans-Serif" font-size="14.00">class = benign</text>
</g>
<!-- 1 -->
<g id="node2" class="node">
<title>1</title>
<polygon fill="#4ca6e8" stroke="black" points="604.5,-387.5 395,-387.5 395,-313.5 604.5,-313.5 604.5,-387.5"/>
<text text-anchor="middle" x="499.75" y="-370.2" font-family="Helvetica,sans-Serif" font-size="14.00">worst concave points &lt;= 0.136</text>
<text text-anchor="middle" x="499.75" y="-353.7" font-family="Helvetica,sans-Serif" font-size="14.00">samples = 284</text>
<text text-anchor="middle" x="499.75" y="-337.2" font-family="Helvetica,sans-Serif" font-size="14.00">value = [25, 259]</text>
<text text-anchor="middle" x="499.75" y="-320.7" font-family="Helvetica,sans-Serif" font-size="14.00">class = benign</text>
</g>
<!-- 0&#45;&gt;1 -->
<g id="edge1" class="edge">
<title>0&#45;&gt;1</title>
<path fill="none" stroke="black" d="M580.79,-423.24C570.73,-414.33 559.85,-404.7 549.43,-395.48"/>
<polygon fill="black" stroke="black" points="551.75,-392.86 541.95,-388.85 547.11,-398.1 551.75,-392.86"/>
<text text-anchor="middle" x="542.33" y="-407.75" font-family="Helvetica,sans-Serif" font-size="14.00">True</text>
</g>
<!-- 14 -->
<g id="node15" class="node">
<title>14</title>
<polygon fill="#e78945" stroke="black" points="787.38,-387.5 634.12,-387.5 634.12,-313.5 787.38,-313.5 787.38,-387.5"/>
<text text-anchor="middle" x="710.75" y="-370.2" font-family="Helvetica,sans-Serif" font-size="14.00">texture error &lt;= 0.473</text>
<text text-anchor="middle" x="710.75" y="-353.7" font-family="Helvetica,sans-Serif" font-size="14.00">samples = 142</text>
<text text-anchor="middle" x="710.75" y="-337.2" font-family="Helvetica,sans-Serif" font-size="14.00">value = [134, 8]</text>
<text text-anchor="middle" x="710.75" y="-320.7" font-family="Helvetica,sans-Serif" font-size="14.00">class = malignant</text>
</g>
<!-- 0&#45;&gt;14 -->
<g id="edge14" class="edge">
<title>0&#45;&gt;14</title>
<path fill="none" stroke="black" d="M651.63,-423.24C658.68,-414.69 666.27,-405.47 673.59,-396.59"/>
<polygon fill="black" stroke="black" points="676.17,-398.96 679.83,-389.02 670.77,-394.51 676.17,-398.96"/>
<text text-anchor="middle" x="683.19" y="-407.69" font-family="Helvetica,sans-Serif" font-size="14.00">False</text>
</g>
<!-- 2 -->
<g id="node3" class="node">
<title>2</title>
<polygon fill="#3c9fe5" stroke="black" points="386.12,-277.5 237.38,-277.5 237.38,-203.5 386.12,-203.5 386.12,-277.5"/>
<text text-anchor="middle" x="311.75" y="-260.2" font-family="Helvetica,sans-Serif" font-size="14.00">radius error &lt;= 1.048</text>
<text text-anchor="middle" x="311.75" y="-243.7" font-family="Helvetica,sans-Serif" font-size="14.00">samples = 252</text>
<text text-anchor="middle" x="311.75" y="-227.2" font-family="Helvetica,sans-Serif" font-size="14.00">value = [4, 248]</text>
<text text-anchor="middle" x="311.75" y="-210.7" font-family="Helvetica,sans-Serif" font-size="14.00">class = benign</text>
</g>
<!-- 1&#45;&gt;2 -->
<g id="edge2" class="edge">
<title>1&#45;&gt;2</title>
<path fill="none" stroke="black" d="M436.36,-313.09C419.88,-303.62 401.98,-293.34 385.03,-283.6"/>
<polygon fill="black" stroke="black" points="386.91,-280.64 376.49,-278.69 383.42,-286.71 386.91,-280.64"/>
</g>
<!-- 7 -->
<g id="node8" class="node">
<title>7</title>
<polygon fill="#f3c3a1" stroke="black" points="578.25,-277.5 421.25,-277.5 421.25,-203.5 578.25,-203.5 578.25,-277.5"/>
<text text-anchor="middle" x="499.75" y="-260.2" font-family="Helvetica,sans-Serif" font-size="14.00">worst texture &lt;= 25.62</text>
<text text-anchor="middle" x="499.75" y="-243.7" font-family="Helvetica,sans-Serif" font-size="14.00">samples = 32</text>
<text text-anchor="middle" x="499.75" y="-227.2" font-family="Helvetica,sans-Serif" font-size="14.00">value = [21, 11]</text>
<text text-anchor="middle" x="499.75" y="-210.7" font-family="Helvetica,sans-Serif" font-size="14.00">class = malignant</text>
</g>
<!-- 1&#45;&gt;7 -->
<g id="edge7" class="edge">
<title>1&#45;&gt;7</title>
<path fill="none" stroke="black" d="M499.75,-313.24C499.75,-305.49 499.75,-297.2 499.75,-289.1"/>
<polygon fill="black" stroke="black" points="503.25,-289.36 499.75,-279.36 496.25,-289.36 503.25,-289.36"/>
</g>
<!-- 3 -->
<g id="node4" class="node">
<title>3</title>
<polygon fill="#3b9ee5" stroke="black" points="231,-167.5 42.5,-167.5 42.5,-93.5 231,-93.5 231,-167.5"/>
<text text-anchor="middle" x="136.75" y="-150.2" font-family="Helvetica,sans-Serif" font-size="14.00">smoothness error &lt;= 0.003</text>
<text text-anchor="middle" x="136.75" y="-133.7" font-family="Helvetica,sans-Serif" font-size="14.00">samples = 251</text>
<text text-anchor="middle" x="136.75" y="-117.2" font-family="Helvetica,sans-Serif" font-size="14.00">value = [3, 248]</text>
<text text-anchor="middle" x="136.75" y="-100.7" font-family="Helvetica,sans-Serif" font-size="14.00">class = benign</text>
</g>
<!-- 2&#45;&gt;3 -->
<g id="edge3" class="edge">
<title>2&#45;&gt;3</title>
<path fill="none" stroke="black" d="M252.99,-203.24C237.7,-193.8 221.08,-183.55 205.33,-173.82"/>
<polygon fill="black" stroke="black" points="207.29,-170.92 196.94,-168.65 203.61,-176.88 207.29,-170.92"/>
</g>
<!-- 6 -->
<g id="node7" class="node">
<title>6</title>
<polygon fill="#e58139" stroke="black" points="374.12,-159.25 249.38,-159.25 249.38,-101.75 374.12,-101.75 374.12,-159.25"/>
<text text-anchor="middle" x="311.75" y="-141.95" font-family="Helvetica,sans-Serif" font-size="14.00">samples = 1</text>
<text text-anchor="middle" x="311.75" y="-125.45" font-family="Helvetica,sans-Serif" font-size="14.00">value = [1, 0]</text>
<text text-anchor="middle" x="311.75" y="-108.95" font-family="Helvetica,sans-Serif" font-size="14.00">class = malignant</text>
</g>
<!-- 2&#45;&gt;6 -->
<g id="edge6" class="edge">
<title>2&#45;&gt;6</title>
<path fill="none" stroke="black" d="M311.75,-203.24C311.75,-192.91 311.75,-181.6 311.75,-171.09"/>
<polygon fill="black" stroke="black" points="315.25,-171.16 311.75,-161.16 308.25,-171.16 315.25,-171.16"/>
</g>
<!-- 4 -->
<g id="node5" class="node">
<title>4</title>
<polygon fill="#7bbeee" stroke="black" points="107.5,-57.5 0,-57.5 0,0 107.5,0 107.5,-57.5"/>
<text text-anchor="middle" x="53.75" y="-40.2" font-family="Helvetica,sans-Serif" font-size="14.00">samples = 4</text>
<text text-anchor="middle" x="53.75" y="-23.7" font-family="Helvetica,sans-Serif" font-size="14.00">value = [1, 3]</text>
<text text-anchor="middle" x="53.75" y="-7.2" font-family="Helvetica,sans-Serif" font-size="14.00">class = benign</text>
</g>
<!-- 3&#45;&gt;4 -->
<g id="edge4" class="edge">
<title>3&#45;&gt;4</title>
<path fill="none" stroke="black" d="M106.55,-93.21C99.33,-84.52 91.61,-75.25 84.36,-66.54"/>
<polygon fill="black" stroke="black" points="87.08,-64.34 78,-58.89 81.7,-68.82 87.08,-64.34"/>
</g>
<!-- 5 -->
<g id="node6" class="node">
<title>5</title>
<polygon fill="#3b9ee5" stroke="black" points="238.12,-57.5 125.38,-57.5 125.38,0 238.12,0 238.12,-57.5"/>
<text text-anchor="middle" x="181.75" y="-40.2" font-family="Helvetica,sans-Serif" font-size="14.00">samples = 247</text>
<text text-anchor="middle" x="181.75" y="-23.7" font-family="Helvetica,sans-Serif" font-size="14.00">value = [2, 245]</text>
<text text-anchor="middle" x="181.75" y="-7.2" font-family="Helvetica,sans-Serif" font-size="14.00">class = benign</text>
</g>
<!-- 3&#45;&gt;5 -->
<g id="edge5" class="edge">
<title>3&#45;&gt;5</title>
<path fill="none" stroke="black" d="M153.12,-93.21C156.79,-85.07 160.7,-76.42 164.4,-68.2"/>
<polygon fill="black" stroke="black" points="167.58,-69.66 168.51,-59.11 161.2,-66.78 167.58,-69.66"/>
</g>
<!-- 8 -->
<g id="node9" class="node">
<title>8</title>
<polygon fill="#7bbeee" stroke="black" points="584.88,-167.5 392.62,-167.5 392.62,-93.5 584.88,-93.5 584.88,-167.5"/>
<text text-anchor="middle" x="488.75" y="-150.2" font-family="Helvetica,sans-Serif" font-size="14.00">worst smoothness &lt;= 0.179</text>
<text text-anchor="middle" x="488.75" y="-133.7" font-family="Helvetica,sans-Serif" font-size="14.00">samples = 12</text>
<text text-anchor="middle" x="488.75" y="-117.2" font-family="Helvetica,sans-Serif" font-size="14.00">value = [3, 9]</text>
<text text-anchor="middle" x="488.75" y="-100.7" font-family="Helvetica,sans-Serif" font-size="14.00">class = benign</text>
</g>
<!-- 7&#45;&gt;8 -->
<g id="edge8" class="edge">
<title>7&#45;&gt;8</title>
<path fill="none" stroke="black" d="M496.06,-203.24C495.27,-195.49 494.42,-187.2 493.6,-179.1"/>
<polygon fill="black" stroke="black" points="497.1,-178.95 492.61,-169.36 490.14,-179.66 497.1,-178.95"/>
</g>
<!-- 11 -->
<g id="node12" class="node">
<title>11</title>
<polygon fill="#e88f4f" stroke="black" points="778.62,-167.5 602.88,-167.5 602.88,-93.5 778.62,-93.5 778.62,-167.5"/>
<text text-anchor="middle" x="690.75" y="-150.2" font-family="Helvetica,sans-Serif" font-size="14.00">worst symmetry &lt;= 0.268</text>
<text text-anchor="middle" x="690.75" y="-133.7" font-family="Helvetica,sans-Serif" font-size="14.00">samples = 20</text>
<text text-anchor="middle" x="690.75" y="-117.2" font-family="Helvetica,sans-Serif" font-size="14.00">value = [18, 2]</text>
<text text-anchor="middle" x="690.75" y="-100.7" font-family="Helvetica,sans-Serif" font-size="14.00">class = malignant</text>
</g>
<!-- 7&#45;&gt;11 -->
<g id="edge11" class="edge">
<title>7&#45;&gt;11</title>
<path fill="none" stroke="black" d="M564.15,-203.09C580.9,-193.62 599.08,-183.34 616.3,-173.6"/>
<polygon fill="black" stroke="black" points="618.01,-176.65 624.99,-168.68 614.56,-170.56 618.01,-176.65"/>
</g>
<!-- 9 -->
<g id="node10" class="node">
<title>9</title>
<polygon fill="#4fa8e8" stroke="black" points="408.5,-57.5 301,-57.5 301,0 408.5,0 408.5,-57.5"/>
<text text-anchor="middle" x="354.75" y="-40.2" font-family="Helvetica,sans-Serif" font-size="14.00">samples = 10</text>
<text text-anchor="middle" x="354.75" y="-23.7" font-family="Helvetica,sans-Serif" font-size="14.00">value = [1, 9]</text>
<text text-anchor="middle" x="354.75" y="-7.2" font-family="Helvetica,sans-Serif" font-size="14.00">class = benign</text>
</g>
<!-- 8&#45;&gt;9 -->
<g id="edge9" class="edge">
<title>8&#45;&gt;9</title>
<path fill="none" stroke="black" d="M439.99,-93.21C427.35,-83.79 413.76,-73.68 401.24,-64.36"/>
<polygon fill="black" stroke="black" points="403.66,-61.8 393.55,-58.63 399.48,-67.41 403.66,-61.8"/>
</g>
<!-- 10 -->
<g id="node11" class="node">
<title>10</title>
<polygon fill="#e58139" stroke="black" points="551.12,-57.5 426.38,-57.5 426.38,0 551.12,0 551.12,-57.5"/>
<text text-anchor="middle" x="488.75" y="-40.2" font-family="Helvetica,sans-Serif" font-size="14.00">samples = 2</text>
<text text-anchor="middle" x="488.75" y="-23.7" font-family="Helvetica,sans-Serif" font-size="14.00">value = [2, 0]</text>
<text text-anchor="middle" x="488.75" y="-7.2" font-family="Helvetica,sans-Serif" font-size="14.00">class = malignant</text>
</g>
<!-- 8&#45;&gt;10 -->
<g id="edge10" class="edge">
<title>8&#45;&gt;10</title>
<path fill="none" stroke="black" d="M488.75,-93.21C488.75,-85.35 488.75,-77 488.75,-69.03"/>
<polygon fill="black" stroke="black" points="492.25,-69.24 488.75,-59.24 485.25,-69.24 492.25,-69.24"/>
</g>
<!-- 12 -->
<g id="node13" class="node">
<title>12</title>
<polygon fill="#9ccef2" stroke="black" points="676.5,-57.5 569,-57.5 569,0 676.5,0 676.5,-57.5"/>
<text text-anchor="middle" x="622.75" y="-40.2" font-family="Helvetica,sans-Serif" font-size="14.00">samples = 3</text>
<text text-anchor="middle" x="622.75" y="-23.7" font-family="Helvetica,sans-Serif" font-size="14.00">value = [1, 2]</text>
<text text-anchor="middle" x="622.75" y="-7.2" font-family="Helvetica,sans-Serif" font-size="14.00">class = benign</text>
</g>
<!-- 11&#45;&gt;12 -->
<g id="edge12" class="edge">
<title>11&#45;&gt;12</title>
<path fill="none" stroke="black" d="M666.01,-93.21C660.21,-84.71 654.03,-75.64 648.21,-67.09"/>
<polygon fill="black" stroke="black" points="651.2,-65.27 642.68,-58.98 645.42,-69.21 651.2,-65.27"/>
</g>
<!-- 13 -->
<g id="node14" class="node">
<title>13</title>
<polygon fill="#e58139" stroke="black" points="819.12,-57.5 694.38,-57.5 694.38,0 819.12,0 819.12,-57.5"/>
<text text-anchor="middle" x="756.75" y="-40.2" font-family="Helvetica,sans-Serif" font-size="14.00">samples = 17</text>
<text text-anchor="middle" x="756.75" y="-23.7" font-family="Helvetica,sans-Serif" font-size="14.00">value = [17, 0]</text>
<text text-anchor="middle" x="756.75" y="-7.2" font-family="Helvetica,sans-Serif" font-size="14.00">class = malignant</text>
</g>
<!-- 11&#45;&gt;13 -->
<g id="edge13" class="edge">
<title>11&#45;&gt;13</title>
<path fill="none" stroke="black" d="M714.76,-93.21C720.39,-84.71 726.39,-75.64 732.04,-67.09"/>
<polygon fill="black" stroke="black" points="734.8,-69.26 737.4,-58.99 728.97,-65.4 734.8,-69.26"/>
</g>
<!-- 15 -->
<g id="node16" class="node">
<title>15</title>
<polygon fill="#399de5" stroke="black" points="764.5,-269.25 657,-269.25 657,-211.75 764.5,-211.75 764.5,-269.25"/>
<text text-anchor="middle" x="710.75" y="-251.95" font-family="Helvetica,sans-Serif" font-size="14.00">samples = 5</text>
<text text-anchor="middle" x="710.75" y="-235.45" font-family="Helvetica,sans-Serif" font-size="14.00">value = [0, 5]</text>
<text text-anchor="middle" x="710.75" y="-218.95" font-family="Helvetica,sans-Serif" font-size="14.00">class = benign</text>
</g>
<!-- 14&#45;&gt;15 -->
<g id="edge15" class="edge">
<title>14&#45;&gt;15</title>
<path fill="none" stroke="black" d="M710.75,-313.24C710.75,-302.91 710.75,-291.6 710.75,-281.09"/>
<polygon fill="black" stroke="black" points="714.25,-281.16 710.75,-271.16 707.25,-281.16 714.25,-281.16"/>
</g>
<!-- 16 -->
<g id="node17" class="node">
<title>16</title>
<polygon fill="#e6843d" stroke="black" points="977.12,-277.5 804.38,-277.5 804.38,-203.5 977.12,-203.5 977.12,-277.5"/>
<text text-anchor="middle" x="890.75" y="-260.2" font-family="Helvetica,sans-Serif" font-size="14.00">worst concavity &lt;= 0.191</text>
<text text-anchor="middle" x="890.75" y="-243.7" font-family="Helvetica,sans-Serif" font-size="14.00">samples = 137</text>
<text text-anchor="middle" x="890.75" y="-227.2" font-family="Helvetica,sans-Serif" font-size="14.00">value = [134, 3]</text>
<text text-anchor="middle" x="890.75" y="-210.7" font-family="Helvetica,sans-Serif" font-size="14.00">class = malignant</text>
</g>
<!-- 14&#45;&gt;16 -->
<g id="edge16" class="edge">
<title>14&#45;&gt;16</title>
<path fill="none" stroke="black" d="M771.44,-313.09C787.22,-303.62 804.36,-293.34 820.59,-283.6"/>
<polygon fill="black" stroke="black" points="821.95,-286.86 828.72,-278.72 818.34,-280.86 821.95,-286.86"/>
</g>
<!-- 17 -->
<g id="node18" class="node">
<title>17</title>
<polygon fill="#bddef6" stroke="black" points="973.38,-167.5 808.12,-167.5 808.12,-93.5 973.38,-93.5 973.38,-167.5"/>
<text text-anchor="middle" x="890.75" y="-150.2" font-family="Helvetica,sans-Serif" font-size="14.00">worst texture &lt;= 30.975</text>
<text text-anchor="middle" x="890.75" y="-133.7" font-family="Helvetica,sans-Serif" font-size="14.00">samples = 5</text>
<text text-anchor="middle" x="890.75" y="-117.2" font-family="Helvetica,sans-Serif" font-size="14.00">value = [2, 3]</text>
<text text-anchor="middle" x="890.75" y="-100.7" font-family="Helvetica,sans-Serif" font-size="14.00">class = benign</text>
</g>
<!-- 16&#45;&gt;17 -->
<g id="edge17" class="edge">
<title>16&#45;&gt;17</title>
<path fill="none" stroke="black" d="M890.75,-203.24C890.75,-195.49 890.75,-187.2 890.75,-179.1"/>
<polygon fill="black" stroke="black" points="894.25,-179.36 890.75,-169.36 887.25,-179.36 894.25,-179.36"/>
</g>
<!-- 20 -->
<g id="node21" class="node">
<title>20</title>
<polygon fill="#e58139" stroke="black" points="1116.12,-159.25 991.38,-159.25 991.38,-101.75 1116.12,-101.75 1116.12,-159.25"/>
<text text-anchor="middle" x="1053.75" y="-141.95" font-family="Helvetica,sans-Serif" font-size="14.00">samples = 132</text>
<text text-anchor="middle" x="1053.75" y="-125.45" font-family="Helvetica,sans-Serif" font-size="14.00">value = [132, 0]</text>
<text text-anchor="middle" x="1053.75" y="-108.95" font-family="Helvetica,sans-Serif" font-size="14.00">class = malignant</text>
</g>
<!-- 16&#45;&gt;20 -->
<g id="edge20" class="edge">
<title>16&#45;&gt;20</title>
<path fill="none" stroke="black" d="M945.48,-203.24C963.75,-191.13 984.04,-177.69 1002.08,-165.74"/>
<polygon fill="black" stroke="black" points="1003.61,-168.92 1010.01,-160.48 999.74,-163.08 1003.61,-168.92"/>
</g>
<!-- 18 -->
<g id="node19" class="node">
<title>18</title>
<polygon fill="#399de5" stroke="black" points="944.5,-57.5 837,-57.5 837,0 944.5,0 944.5,-57.5"/>
<text text-anchor="middle" x="890.75" y="-40.2" font-family="Helvetica,sans-Serif" font-size="14.00">samples = 3</text>
<text text-anchor="middle" x="890.75" y="-23.7" font-family="Helvetica,sans-Serif" font-size="14.00">value = [0, 3]</text>
<text text-anchor="middle" x="890.75" y="-7.2" font-family="Helvetica,sans-Serif" font-size="14.00">class = benign</text>
</g>
<!-- 17&#45;&gt;18 -->
<g id="edge18" class="edge">
<title>17&#45;&gt;18</title>
<path fill="none" stroke="black" d="M890.75,-93.21C890.75,-85.35 890.75,-77 890.75,-69.03"/>
<polygon fill="black" stroke="black" points="894.25,-69.24 890.75,-59.24 887.25,-69.24 894.25,-69.24"/>
</g>
<!-- 19 -->
<g id="node20" class="node">
<title>19</title>
<polygon fill="#e58139" stroke="black" points="1087.12,-57.5 962.38,-57.5 962.38,0 1087.12,0 1087.12,-57.5"/>
<text text-anchor="middle" x="1024.75" y="-40.2" font-family="Helvetica,sans-Serif" font-size="14.00">samples = 2</text>
<text text-anchor="middle" x="1024.75" y="-23.7" font-family="Helvetica,sans-Serif" font-size="14.00">value = [2, 0]</text>
<text text-anchor="middle" x="1024.75" y="-7.2" font-family="Helvetica,sans-Serif" font-size="14.00">class = malignant</text>
</g>
<!-- 17&#45;&gt;19 -->
<g id="edge19" class="edge">
<title>17&#45;&gt;19</title>
<path fill="none" stroke="black" d="M939.51,-93.21C952.15,-83.79 965.74,-73.68 978.26,-64.36"/>
<polygon fill="black" stroke="black" points="980.02,-67.41 985.95,-58.63 975.84,-61.8 980.02,-67.41"/>
</g>
</g>
</svg>